<?xml version="1.0" encoding="UTF-8"?>
<svg id="_Слой_1" xmlns="http://www.w3.org/2000/svg" version="1.1" viewBox="0 0 1448.69 479.46">
  <defs>
    <style>
      .st0 {
        fill: #fff;
      }
    </style>
  </defs>
  <path class="st0" d="M138.25,10.06c55.11-2.8,161.63.45,167.18,75.38,3.16,42.62-8.77,80.83-51.29,97.04,27.89,11.12,48.05,20.32,51.11,53.54,6.2,67.29-38.24,113.19-99.99,129.79-38.07,10.23-119.43,4.83-159.91-.92-13.08-1.86-35.11-6.76-41.24-19.83-15.67-33.4,16.67-60.99,44.53-72.51,15.29-6.32,21.63-2.54,28.95-20.12,17.3-41.53,13.26-104.09,24.88-148.43.07-7.17.64-14.82-2.46-21.5-8.36-18.05-47.64-5.14-49.92-24.24-1.43-11.98,4.15-27.77,14.28-34.83,11.65-8.12,58.3-12.58,73.89-13.37h-.01ZM229.03,60.97c-.66,6.26,7.2,8.65,10.9,13.62,12.65,16.99,8.92,44.34-4.34,59.97-3.55,4.18-8.3,6.97-11.94,11.03,1.68,6.05,6.38,2.53,9.76-.13,19.37-15.23,26.22-45.88,15.67-68.02-3.46-7.27-11.2-17.31-20.05-16.47h0ZM187.68,309.55c-1.78,8.64,10.04,5.15,15.11,3.66,30.29-8.89,39.8-49.76,31.15-76.79-1.84-5.76-12.2-25.47-17.68-27.06-2.69-.78-5.3.27-4.49,3.4.71,2.78,8.5,10.17,10.9,14.22,10.27,17.36,11.08,40.86,1.8,58.84-7.54,14.61-20.4,22.56-36.79,23.73h0Z"/>
  <path class="st0" d="M984.31,351.58c-19.58-20.41-10.7-55.22-4.43-79.42,4.93-19,12.06-37.33,18.22-55.93.43-3.29-8.01-.87-10.22-1.66-12.02,37.55-18.34,76.87-29.34,114.74-13.53,46.56-54.14,127.52-101.95,145.54-34.37,12.96-83.86-1.29-85.43-43.85-1.33-36.04,52.32-56.93,71.5-23.46,6.39-2.83,25.79-45.87,29.43-54.52,21.38-50.95,32.47-104.28,43.18-158.31-20.28-13.38-13.37-49.32,10.59-53.89,4.12-.79,8.94-.09,13.15-1.57,3.66-27.74,10.3-55.49,24.02-80.08,22.69-40.67,66.41-73.32,114.38-52.87,3.67,1.56,14.18,8.7,16.22,8.91,3,.3,12.21-3.98,17.36-4.39,36.68-2.94,45.49,26.2,33.16,56.01-9.14,22.09-24.45,46.5-35.32,68.25-10.48,20.96-41.02,75.99-42.02,96.44-.94,19.15,15.83,4.19,17.52,18.53,2.36,20-20.69,69.2-33.86,85.01s-48.54,34.9-66.15,16.55v-.03ZM1025.21,143.61l34.66-69.5-.55-1.71c-14.55-12.69-28.04,19.21-32.27,30.01-5.11,13.02-8.02,27.08-12.57,40.29l10.74.91h-.01Z"/>
  <path class="st0" d="M815.56,14.47c9.74,9.77,5.63,30.36,2.24,42.38-8.22,29.14-22.16,56.28-34.59,83.68,25.92-19.76,69.13-42.85,99.17-18.98,32.13,25.52,8.86,73.09-16.26,94.74-27.33,23.56-68.29,44.88-104.74,32.66-1.44-.48-1.38-1.12-1.08,1.08,1.9,14.09,25.26,41.01,36.72,49.43,2.53,1.86,18.4,10.55,19.99,8.9-3.22-30.91,38.87-45.27,55.47-18.89,16.66,26.47-4.38,61.05-30.71,71.41-17.34,6.82-47.39,2.17-64.59-4.54-33.51-13.07-51.84-48.6-69.79-77.4-6.84,17.93-11.73,36.96-19.68,54.45-9.82,21.62-21.7,22.6-44.67,20.73-26.03-2.12-27.14-11.37-20.48-34.6,6.63-23.12,20.31-46.92,29.93-69.27,23.78-55.24,46.97-110.74,70.46-166.1,4.9-20.37-17.68-10.22-27.41-17.87-8.43-6.64,1.93-33.72,8.58-40.17,18.03-17.48,93.31-29.81,111.45-11.63h0ZM787.57,204.83c-3.82,8.48,8.91,7,14.59,6.41,21.96-2.3,44.42-21.51,51.69-42.09,1.07-3.02,6.56-19.85-.15-18.75-2.4.4-5.67,16.03-7.37,19.95-5.65,13.05-27.11,34.49-41.84,34.49h-16.92Z"/>
  <path class="st0" d="M1307.94,199.37c3.22-2.89,3.29-8.59,5.25-12.73,5.46-11.55,26.99-31.58,38.05-38.28,37.28-22.56,94.96-7.84,97.4,40.67,1.83,36.4-51.94,55.24-62.7,15.79-10.21,7.32-37.09,36.87-37.59,48.59-.3,7.1,9.93,22.24,14.66,27.71,7.78,9,21.24,20.27,33.66,18.62,6.82-26.57,45.74-24.43,46.42,4.92,1.49,64.56-106.75,78.28-125.53,17.5l-11.8-32.33c-8.25,42.77-59.84,87.54-104.4,66.68-34.39-16.1-17.21-63.04,14.12-53.35,3.67,1.14,5.02,5.13,8.43,3.58,2.74-1.24,14.8-15.44,17.29-18.75,3.99-5.29,16.12-23.5,16.6-29.25.52-6.19-2.32-18.06-4.14-24.26-2.49-8.54-6.58-17.87-12.83-24.22-12.46,15.63-35.87.56-37.64-15.82-3.27-30.22,10.18-60.15,44.78-57.81,32.2,2.18,51.48,35.02,59.97,62.71v.03Z"/>
  <path class="st0" d="M415.35,143.03c62.57-4.7,73.67,66.97,60.51,113.85-14.4,51.31-77.94,127.46-136.56,92.26-73.77-44.3-8.4-199.76,76.05-206.11h0ZM422.91,188.79c-2.01-1.94-4.91-1.84-5.22,1.36,11.44,32.16,6.63,86.45-25.77,104.95-1.61.92-8.66,3.17-8.93,3.6-2.66,4.31,2.2,5.48,5.35,4.86,24.32-4.78,39.48-44.99,41.26-66.71.73-8.92-.44-42.01-6.7-48.05h0Z"/>
  <path class="st0" d="M572.43,135.4c58.1-5.39,70.56,66.53,64.29,110-7.1,49.17-56.68,132.38-116.41,108.17-79.35-32.15-34.98-210.1,52.11-218.17h.01ZM579.87,188.53c-1.05.3-1.82,1.57-1.84,2.69,2.71,6.1,7.76,9.94,10.43,16.89,10.76,28.02-3.36,71.69-29.23,87.38-2.86,1.73-14.16,4.88-12.27,8.52,2.73,5.24,16.07-3.12,19.5-5.65,24.88-18.3,37.04-57.5,29.65-87.01-1.3-5.19-9.58-24.74-16.25-22.82h.01Z"/>
  <path class="st0" d="M1165.31,252.5c5.77,6.1,9.27-1.42,14.38-3.05,15.72-5.03,22.5,7.27,21.2,21.18-1.79,19.25-16.48,40.72-30.4,53.55-13.19,12.16-47.84,33.55-65.71,31.83-46.11-4.43-24.54-65.75-11.24-91.26,8.95-17.16,23.77-31.33,29.24-50.35,1.96-6.82,5.11-15.79-5.77-11.74,7.84,28.36-37.25,29.67-36.78,1.92.3-17.59,28.71-53.58,42.81-64.04,24.35-18.05,64.77-17.39,74.41,16.07,9.28,32.22-9.18,42.01-23.73,66.17-3.63,6.02-14.51,23.28-8.42,29.72h.01Z"/>
  <path class="st0" d="M1197.51,29.66c37.52-.76,43.3,43.44,23.13,67.79-26.41,31.87-89.66,21.76-71.41-29.92,6.31-17.88,28.73-37.47,48.28-37.87Z"/>
</svg>

